<svg xmlns="http://www.w3.org/2000/svg" viewBox="0 0 20 20"><path d="M15.8 15.8c-.6 0-1.3-.1-2-.1.7-.6 1.3-1.4 1.7-2.2.2.2.5.4.8.4h.4c.3 0 .6-.1.8-.2.4-.2.6-.6.7-1 .1-.4 0-.9-.2-1.2-.4-.6-1.1-.9-1.8-.7v-.9c0-.3-.2-.6-.6-.6H5.3c-.3 0-.5.2-.5.6 0 2.4 1 4.6 2.5 5.8-.7 0-1.4.1-2 .1-2.1.1-2.7.3-2.7.9 0 .6.6.8 2.7.9 1.4.1 3.3.2 5.3.2s3.9-.1 5.3-.2c2.1-.1 2.7-.3 2.7-.9-.1-.6-.7-.8-2.8-.9zm.3-4.3c.5-.3 1-.1 1.3.3.1.2.2.5.1.7-.1.2-.2.5-.4.6-.2.1-.5.2-.7.1-.2-.1-.4-.2-.6-.4.1-.4.2-.9.3-1.3zm-5.6 4.4c-2.4 0-4.4-2.4-4.6-5.4h9.2c-.2 3-2.2 5.4-4.6 5.4zm-1-7.8c.2 0 .3-.1.4-.2.1-.1.1-.2 0-.4 0 0-.4-1.3.1-2.3.6-1 .8-1.8.6-2.4-.2-.5-.6-.6-.6-.6-.3-.1-.5.1-.6.3-.1.2.1.5.3.5 0 0 .1 0 .1.1.1.1.1.6-.5 1.6 0 .1-.1.2-.1.2-.8 1.2-1 2-.7 2.6.2.4.7.6 1 .6zm2.3.1c.2 0 .3-.1.4-.2.1-.1.1-.3.1-.4 0 0-.2-.7.1-1.3.4-.7.5-1.2.4-1.6-.1-.4-.4-.5-.5-.5-.2-.1-.5.1-.5.3v.3c0 .2 0 .3.2.3 0 0 .1.2-.3.8l-.1.1c-.5.7-.6 1.2-.4 1.7.1.4.4.5.6.5z"/></svg>