<svg xmlns="http://www.w3.org/2000/svg" viewBox="0 0 20 20"><path d="M15.7 15.5l-3.1-8.3V4.8c.6-.2 1-.7 1-1.4V3c0-.8-.7-1.5-1.5-1.5H7.8c-.8 0-1.5.7-1.5 1.5v.4c0 .6.4 1.2 1 1.4v2.4l-3.1 8.3c-.2.5-.1 1 .1 1.4.3.4.7.6 1.2.6h8.7c.5 0 1-.2 1.2-.7.4-.4.5-.9.3-1.3zm-7.6-1.4c-.3 0-.5-.2-.5-.5s.2-.5.5-.5.5.2.5.5-.2.5-.5.5zm2.8 1.7c-.5 0-.9-.4-.9-.9s.4-.9.9-.9.9.4.9.9c-.1.5-.5.9-.9.9zm-.8-3.7c0-.3.3-.6.6-.6s.6.3.6.6-.3.6-.6.6c-.3.1-.6-.2-.6-.6zm2.4-2.4c-.6.7-5.3.7-5.3.7l1.1-3.1V3.8h-.5c-.3 0-.5-.2-.5-.5V3c0-.3.2-.5.5-.5h4.4c.3 0 .5.2.5.5v.4c0 .3-.2.5-.5.5h-.5v3.5l.8 2.3zM9.6 7.9c-.3 0-.6.3-.6.7 0 .4.3.7.7.7.4 0 .7-.3.7-.7-.1-.4-.4-.7-.8-.7z"/></svg>