<?xml version="1.0" encoding="utf-8"?>
<!-- Generator: Adobe Illustrator 18.0.0, SVG Export Plug-In . SVG Version: 6.00 Build 0)  -->
<!DOCTYPE svg PUBLIC "-//W3C//DTD SVG 1.1//EN" "http://www.w3.org/Graphics/SVG/1.1/DTD/svg11.dtd">
<svg version="1.1" id="Layer_1" xmlns="http://www.w3.org/2000/svg" xmlns:xlink="http://www.w3.org/1999/xlink" x="0px" y="0px"
	 viewBox="0 0 89 20" enable-background="new 0 0 89 20" xml:space="preserve">
<g>
	<defs>
		<rect id="SVGID_1_" x="-1" width="90" height="20"/>
	</defs>
	<clipPath id="SVGID_2_">
		<use xlink:href="#SVGID_1_"  overflow="visible"/>
	</clipPath>
	<g clip-path="url(#SVGID_2_)">
		<defs>
			<path id="SVGID_3_" d="M10,9.3c0.3,0,0.6-0.3,0.6-0.6c0-0.3-0.3-0.6-0.6-0.6c-0.3,0-0.6,0.3-0.6,0.6C9.4,9.1,9.7,9.3,10,9.3z
				 M10.5,13.1H12c0.6,0,0.8-0.4,0.6-0.9l-0.9-1.9c0,0,0-0.1,0-0.1c0,0-0.1-0.8-0.4-2.1c-0.3-1.3-0.8-2-0.8-2
				c-0.2-0.4-0.7-0.4-0.9,0c0,0-0.4,0.4-0.8,2c-0.4,1.6-0.4,2.1-0.4,2.1c0,0.1,0,0.1,0,0.2l-0.9,1.9c-0.3,0.5,0,0.9,0.6,0.9h1.6
				l0.3,0.3c0.1,0.1,0.3,0.1,0.4,0L10.5,13.1z M0,17.4c0-0.3,0.1-0.6,0.3-1L8.5,2.1c0.8-1.4,2.1-1.4,3,0l8.2,14.3
				c0.2,0.3,0.3,0.7,0.3,1v0.4c-0.1,0.7-0.7,1.2-1.6,1.2c-0.4-0.5-1-0.8-1.7-0.8c-0.2,0-0.4,0-0.5,0.1c-0.3-0.6-0.9-1.1-1.6-1.1
				c-0.7,0-1.3,0.4-1.6,1c-2.3-0.8-2.7-4-2.7-4H10v2.4v-2.4H9.7c0,0-0.4,3.2-2.7,4c-0.3-0.6-0.9-1-1.6-1c-0.7,0-1.3,0.4-1.6,1.1
				c-0.2,0-0.4-0.1-0.5-0.1c-0.7,0-1.3,0.3-1.7,0.8c-1-0.1-1.5-0.5-1.6-1.3V17.4z"/>
		</defs>
		<clipPath id="SVGID_4_">
			<use xlink:href="#SVGID_3_"  overflow="visible"/>
		</clipPath>
		<g clip-path="url(#SVGID_4_)" enable-background="new    ">
			<g>
				<defs>
					<rect id="SVGID_5_" y="1" width="20" height="18"/>
				</defs>
				<clipPath id="SVGID_6_">
					<use xlink:href="#SVGID_5_"  overflow="visible"/>
				</clipPath>
				<g clip-path="url(#SVGID_6_)">
					<defs>
						<rect id="SVGID_7_" y="1" width="20" height="18"/>
					</defs>
					<clipPath id="SVGID_8_">
						<use xlink:href="#SVGID_7_"  overflow="visible"/>
					</clipPath>
					<g clip-path="url(#SVGID_8_)">
						<defs>
							<rect id="SVGID_9_" width="20" height="19"/>
						</defs>
						<clipPath id="SVGID_10_">
							<use xlink:href="#SVGID_9_"  overflow="visible"/>
						</clipPath>
						<rect x="-5" y="-4" clip-path="url(#SVGID_10_)" fill="#FF4E50" width="30" height="28"/>
					</g>
				</g>
			</g>
		</g>
	</g>
</g>
<g>
	<defs>
		<rect id="SVGID_11_" x="-1" width="90" height="20"/>
	</defs>
	<clipPath id="SVGID_12_">
		<use xlink:href="#SVGID_11_"  overflow="visible"/>
	</clipPath>
	<g clip-path="url(#SVGID_12_)">
		<defs>
			<path id="SVGID_13_" d="M78.1,6c0-2.1,1.7-3.9,3.8-3.9c2.1,0,3.8,1.8,3.8,3.9S84,9.8,81.9,9.8C79.8,9.8,78.1,8.1,78.1,6z M76,6
				c0,3.3,2.7,6,6,6c3.3,0,6-2.6,6-6c0-3.3-2.7-6-6-6C78.7,0,76,2.7,76,6z M69,11.5c0,0.2,0.2,0.3,0.3,0.3h1.5
				c0.2,0,0.3-0.2,0.3-0.3V2.2h2.5C73.9,2.2,74,2,74,1.9V0.5c0-0.2-0.1-0.3-0.3-0.3h-7.3c-0.2,0-0.3,0.1-0.3,0.3v1.4
				c0,0.2,0.1,0.3,0.3,0.3H69V11.5z M55.2,11.5c0,0.2,0.1,0.3,0.3,0.3h6.8c0.2,0,0.3-0.2,0.3-0.3v-1.4c0-0.2-0.1-0.3-0.3-0.3h-4.9
				V6.9h4.1c0.2,0,0.3-0.1,0.3-0.3V5.2c0-0.2-0.2-0.3-0.3-0.3h-4.1V2.2h4.9c0.2,0,0.3-0.1,0.3-0.3V0.5c0-0.2-0.1-0.3-0.3-0.3h-6.8
				c-0.2,0-0.3,0.1-0.3,0.3V11.5z M44.5,5.5V2.2h2.7c0.9,0,1.7,0.7,1.7,1.6c0,0.9-0.8,1.7-1.7,1.7H44.5z M42.3,11.5
				c0,0.2,0.1,0.3,0.3,0.3h1.5c0.2,0,0.3-0.2,0.3-0.3V7.3h1.8l2.2,4.4c0,0.1,0.1,0.2,0.3,0.2h1.8c0.3,0,0.4-0.3,0.3-0.5l-2.3-4.2
				c1.5-0.6,2.5-1.8,2.5-3.4c0-2-1.6-3.6-3.6-3.6h-4.8c-0.2,0-0.3,0.1-0.3,0.3V11.5z M31.9,7.9l1.6-3.7h0l1.7,3.7H31.9z M28.3,11.8
				h1.5c0.3,0,0.4-0.2,0.5-0.3l0.8-1.8h5l0.8,1.8c0.1,0.2,0.2,0.3,0.5,0.3h1.5c0.3,0,0.4-0.2,0.3-0.4L34,0.2c0-0.1-0.1-0.2-0.3-0.2
				h-0.2c-0.2,0-0.2,0.1-0.3,0.2L28,11.4C27.9,11.6,28.1,11.8,28.3,11.8z"/>
		</defs>
		<clipPath id="SVGID_14_">
			<use xlink:href="#SVGID_13_"  overflow="visible"/>
		</clipPath>
		<g clip-path="url(#SVGID_14_)" enable-background="new    ">
			<g>
				<defs>
					<rect id="SVGID_15_" x="28" width="60" height="12"/>
				</defs>
				<clipPath id="SVGID_16_">
					<use xlink:href="#SVGID_15_"  overflow="visible"/>
				</clipPath>
				<g clip-path="url(#SVGID_16_)">
					<defs>
						<rect id="SVGID_17_" x="28" y="0" width="60" height="12"/>
					</defs>
					<clipPath id="SVGID_18_">
						<use xlink:href="#SVGID_17_"  overflow="visible"/>
					</clipPath>
					<g clip-path="url(#SVGID_18_)">
						<defs>
							<rect id="SVGID_19_" x="27" width="61" height="12"/>
						</defs>
						<clipPath id="SVGID_20_">
							<use xlink:href="#SVGID_19_"  overflow="visible"/>
						</clipPath>
						<rect x="23" y="-5" clip-path="url(#SVGID_20_)" fill="#FF4E50" width="70" height="22"/>
					</g>
				</g>
			</g>
		</g>
	</g>
</g>
<g>
	<defs>
		<rect id="SVGID_21_" x="-1" width="90" height="20"/>
	</defs>
	<clipPath id="SVGID_22_">
		<use xlink:href="#SVGID_21_"  overflow="visible"/>
	</clipPath>
	<path clip-path="url(#SVGID_22_)" fill="none" stroke="#FF4E50" stroke-width="0.5" stroke-miterlimit="10" d="M86.8,19.8
		C86.8,19.8,86.8,19.8,86.8,19.8L86.8,19.8C86.8,19.8,86.9,19.8,86.8,19.8l0.1-3.7H88c0,0,0,0,0,0v0c0,0,0,0,0,0h-2.4c0,0,0,0,0,0v0
		c0,0,0,0,0,0h1.1V19.8z M79.8,19.9C79.8,19.9,79.8,19.9,79.8,19.9L79.8,19.9C79.9,19.9,79.9,19.9,79.8,19.9l0.1-3.6l2.8,3.7
		c0,0,0.1,0,0.1,0v-3.8c0,0,0,0,0,0h0c0,0,0,0,0,0v3.6L79.9,16c0,0-0.1,0-0.1,0V19.9z M74.6,19.9C74.6,19.9,74.6,19.9,74.6,19.9
		l2.2,0c0,0,0,0,0,0v0c0,0,0,0,0,0L74.6,19.9l0.1-1.9h1.9c0,0,0,0,0,0v0c0,0,0,0,0,0h-1.9v-1.7h2.1c0,0,0,0,0,0v0c0,0,0,0,0,0h-2.2
		c0,0,0,0,0,0V19.9z M67.2,19.8C67.2,19.9,67.2,19.9,67.2,19.8L67.2,19.8C67.3,19.9,67.3,19.9,67.2,19.8l0.8-3.6l1.2,3.7
		c0,0,0.1,0,0.1,0l1.1-3.7l0.8,3.6c0,0,0,0,0,0l0,0c0,0,0,0,0,0L70.5,16c0,0-0.1,0-0.1,0l-1.2,3.7L68.1,16c0,0-0.1,0-0.1,0
		L67.2,19.8z M62.1,18.5v-2.3h1.1c0.6,0,1.1,0.5,1.1,1.1c0,0.6-0.5,1.1-1.1,1.1H62.1z M62,19.9C62,19.9,62,19.9,62,19.9L62,19.9
		C62.1,19.9,62.1,19.9,62,19.9l0.1-1.3h1.1c0.7,0,1.2-0.6,1.2-1.2c0-0.7-0.6-1.2-1.2-1.2h-1.1c0,0,0,0,0,0V19.9z M54.9,18
		c0-1,0.8-1.9,1.9-1.9s1.9,0.8,1.9,1.9c0,1-0.8,1.8-1.9,1.8S54.9,19,54.9,18z M54.8,18c0,1.1,0.9,1.9,2,1.9c1.1,0,2-0.9,2-1.9
		c0-1.1-0.9-2-2-2C55.7,16,54.8,16.9,54.8,18z M50.2,19.9C50.2,19.9,50.2,19.9,50.2,19.9l2,0c0,0,0,0,0,0v0c0,0,0,0,0,0L50.2,19.9
		l0.1-3.7c0,0,0,0,0,0h0c0,0,0,0,0,0V19.9z M44.9,19.9C44.9,19.9,45,19.9,44.9,19.9l2.2,0c0,0,0,0,0,0v0c0,0,0,0,0,0L44.9,19.9
		L45,18h1.9c0,0,0,0,0,0v0c0,0,0,0,0,0H45v-1.7h2.1c0,0,0,0,0,0v0c0,0,0,0,0,0H45c0,0,0,0,0,0V19.9z M40.2,20
		C40.2,20,40.3,20,40.2,20l1.7-3.8c0,0,0,0,0,0l0,0c0,0,0,0,0,0l-1.6,3.7l-1.6-3.7c0,0,0,0,0,0l0,0c0,0,0,0,0,0L40.2,20z M33.9,19.9
		C33.9,19.9,33.9,19.9,33.9,19.9l2.2,0c0,0,0,0,0,0v0c0,0,0,0,0,0L33.9,19.9L34,18h1.9c0,0,0,0,0,0v0c0,0,0,0,0,0H34v-1.7h2.1
		c0,0,0,0,0,0v0c0,0,0,0,0,0h-2.2c0,0,0,0,0,0V19.9z M28.1,19.8v-3.6h1c1,0,1.8,0.8,1.8,1.8c0,1-0.8,1.8-1.8,1.8H28.1z M28,19.9
		C28,19.9,28,19.9,28,19.9l1.1,0c1.1,0,1.9-0.8,1.9-1.9c0-1-0.9-1.9-1.9-1.9H28c0,0,0,0,0,0V19.9z"/>
</g>
<g>
	<defs>
		<rect id="SVGID_23_" x="-1" width="90" height="20"/>
	</defs>
	<clipPath id="SVGID_24_">
		<use xlink:href="#SVGID_23_"  overflow="visible"/>
	</clipPath>
	<g clip-path="url(#SVGID_24_)">
		<defs>
			<path id="SVGID_25_" d="M86.8,19.8C86.8,19.8,86.8,19.8,86.8,19.8L86.8,19.8C86.8,19.8,86.9,19.8,86.8,19.8l0.1-3.7H88
				c0,0,0,0,0,0v0c0,0,0,0,0,0h-2.4c0,0,0,0,0,0v0c0,0,0,0,0,0h1.1V19.8z M79.8,19.9C79.8,19.9,79.8,19.9,79.8,19.9L79.8,19.9
				C79.9,19.9,79.9,19.9,79.8,19.9l0.1-3.6l2.8,3.7c0,0,0.1,0,0.1,0v-3.8c0,0,0,0,0,0h0c0,0,0,0,0,0v3.6L79.9,16c0,0-0.1,0-0.1,0
				V19.9z M74.6,19.9C74.6,19.9,74.6,19.9,74.6,19.9l2.2,0c0,0,0,0,0,0v0c0,0,0,0,0,0L74.6,19.9l0.1-1.9h1.9c0,0,0,0,0,0v0
				c0,0,0,0,0,0h-1.9v-1.7h2.1c0,0,0,0,0,0v0c0,0,0,0,0,0h-2.2c0,0,0,0,0,0V19.9z M67.2,19.8C67.2,19.9,67.2,19.9,67.2,19.8
				L67.2,19.8C67.3,19.9,67.3,19.9,67.2,19.8l0.8-3.6l1.2,3.7c0,0,0.1,0,0.1,0l1.1-3.7l0.8,3.6c0,0,0,0,0,0l0,0c0,0,0,0,0,0L70.5,16
				c0,0-0.1,0-0.1,0l-1.2,3.7L68.1,16c0,0-0.1,0-0.1,0L67.2,19.8z M62.1,18.5v-2.3h1.1c0.6,0,1.1,0.5,1.1,1.1c0,0.6-0.5,1.1-1.1,1.1
				H62.1z M62,19.9C62,19.9,62,19.9,62,19.9L62,19.9C62.1,19.9,62.1,19.9,62,19.9l0.1-1.3h1.1c0.7,0,1.2-0.6,1.2-1.2
				c0-0.7-0.6-1.2-1.2-1.2h-1.1c0,0,0,0,0,0V19.9z M54.9,18c0-1,0.8-1.9,1.9-1.9c1,0,1.9,0.8,1.9,1.9c0,1-0.8,1.8-1.9,1.8
				C55.8,19.8,54.9,19,54.9,18z M54.8,18c0,1.1,0.9,1.9,2,1.9c1.1,0,2-0.9,2-1.9c0-1.1-0.9-2-2-2C55.7,16,54.8,16.9,54.8,18z
				 M50.2,19.9C50.2,19.9,50.2,19.9,50.2,19.9l2,0c0,0,0,0,0,0v0c0,0,0,0,0,0L50.2,19.9l0.1-3.7c0,0,0,0,0,0h0c0,0,0,0,0,0V19.9z
				 M44.9,19.9C44.9,19.9,45,19.9,44.9,19.9l2.2,0c0,0,0,0,0,0v0c0,0,0,0,0,0L44.9,19.9L45,18h1.9c0,0,0,0,0,0v0c0,0,0,0,0,0H45
				v-1.7h2.1c0,0,0,0,0,0v0c0,0,0,0,0,0H45c0,0,0,0,0,0V19.9z M40.2,20C40.2,20,40.3,20,40.2,20l1.7-3.8c0,0,0,0,0,0l0,0
				c0,0,0,0,0,0l-1.6,3.7l-1.6-3.7c0,0,0,0,0,0l0,0c0,0,0,0,0,0L40.2,20z M33.9,19.9C33.9,19.9,33.9,19.9,33.9,19.9l2.2,0
				c0,0,0,0,0,0v0c0,0,0,0,0,0L33.9,19.9L34,18h1.9c0,0,0,0,0,0v0c0,0,0,0,0,0H34v-1.7h2.1c0,0,0,0,0,0v0c0,0,0,0,0,0h-2.2
				c0,0,0,0,0,0V19.9z M28.1,19.8v-3.6h1c1,0,1.8,0.8,1.8,1.8c0,1-0.8,1.8-1.8,1.8H28.1z M28,19.9C28,19.9,28,19.9,28,19.9l1.1,0
				c1.1,0,1.9-0.8,1.9-1.9c0-1-0.9-1.9-1.9-1.9H28c0,0,0,0,0,0V19.9z"/>
		</defs>
		<clipPath id="SVGID_26_">
			<use xlink:href="#SVGID_25_"  overflow="visible"/>
		</clipPath>
		<g clip-path="url(#SVGID_26_)" enable-background="new    ">
			<g>
				<defs>
					<rect id="SVGID_27_" x="28" y="15" width="61" height="5"/>
				</defs>
				<clipPath id="SVGID_28_">
					<use xlink:href="#SVGID_27_"  overflow="visible"/>
				</clipPath>
				<g clip-path="url(#SVGID_28_)">
					<defs>
						<rect id="SVGID_29_" x="28" y="15" width="61" height="5"/>
					</defs>
					<clipPath id="SVGID_30_">
						<use xlink:href="#SVGID_29_"  overflow="visible"/>
					</clipPath>
					<path clip-path="url(#SVGID_30_)" fill="none" stroke="#FF4E50" stroke-width="0.5" stroke-miterlimit="10" d="M86.8,19.8
						C86.8,19.8,86.8,19.8,86.8,19.8L86.8,19.8C86.8,19.8,86.9,19.8,86.8,19.8l0.1-3.7H88c0,0,0,0,0,0v0c0,0,0,0,0,0h-2.4
						c0,0,0,0,0,0v0c0,0,0,0,0,0h1.1V19.8z M79.8,19.9C79.8,19.9,79.8,19.9,79.8,19.9L79.8,19.9C79.9,19.9,79.9,19.9,79.8,19.9
						l0.1-3.6l2.8,3.7c0,0,0.1,0,0.1,0v-3.8c0,0,0,0,0,0h0c0,0,0,0,0,0v3.6L79.9,16c0,0-0.1,0-0.1,0V19.9z M74.6,19.9
						C74.6,19.9,74.6,19.9,74.6,19.9l2.2,0c0,0,0,0,0,0v0c0,0,0,0,0,0L74.6,19.9l0.1-1.9h1.9c0,0,0,0,0,0v0c0,0,0,0,0,0h-1.9v-1.7
						h2.1c0,0,0,0,0,0v0c0,0,0,0,0,0h-2.2c0,0,0,0,0,0V19.9z M67.2,19.8C67.2,19.9,67.2,19.9,67.2,19.8L67.2,19.8
						C67.3,19.9,67.3,19.9,67.2,19.8l0.8-3.6l1.2,3.7c0,0,0.1,0,0.1,0l1.1-3.7l0.8,3.6c0,0,0,0,0,0l0,0c0,0,0,0,0,0L70.5,16
						c0,0-0.1,0-0.1,0l-1.2,3.7L68.1,16c0,0-0.1,0-0.1,0L67.2,19.8z M62.1,18.5v-2.3h1.1c0.6,0,1.1,0.5,1.1,1.1
						c0,0.6-0.5,1.1-1.1,1.1H62.1z M62,19.9C62,19.9,62,19.9,62,19.9L62,19.9C62.1,19.9,62.1,19.9,62,19.9l0.1-1.3h1.1
						c0.7,0,1.2-0.6,1.2-1.2c0-0.7-0.6-1.2-1.2-1.2h-1.1c0,0,0,0,0,0V19.9z M54.9,18c0-1,0.8-1.9,1.9-1.9s1.9,0.8,1.9,1.9
						c0,1-0.8,1.8-1.9,1.8S54.9,19,54.9,18z M54.8,18c0,1.1,0.9,1.9,2,1.9c1.1,0,2-0.9,2-1.9c0-1.1-0.9-2-2-2
						C55.7,16,54.8,16.9,54.8,18z M50.2,19.9C50.2,19.9,50.2,19.9,50.2,19.9l2,0c0,0,0,0,0,0v0c0,0,0,0,0,0L50.2,19.9l0.1-3.7
						c0,0,0,0,0,0h0c0,0,0,0,0,0V19.9z M44.9,19.9C44.9,19.9,45,19.9,44.9,19.9l2.2,0c0,0,0,0,0,0v0c0,0,0,0,0,0L44.9,19.9L45,18
						h1.9c0,0,0,0,0,0v0c0,0,0,0,0,0H45v-1.7h2.1c0,0,0,0,0,0v0c0,0,0,0,0,0H45c0,0,0,0,0,0V19.9z M40.2,20C40.2,20,40.3,20,40.2,20
						l1.7-3.8c0,0,0,0,0,0l0,0c0,0,0,0,0,0l-1.6,3.7l-1.6-3.7c0,0,0,0,0,0l0,0c0,0,0,0,0,0L40.2,20z M33.9,19.9
						C33.9,19.9,33.9,19.9,33.9,19.9l2.2,0c0,0,0,0,0,0v0c0,0,0,0,0,0L33.9,19.9L34,18h1.9c0,0,0,0,0,0v0c0,0,0,0,0,0H34v-1.7h2.1
						c0,0,0,0,0,0v0c0,0,0,0,0,0h-2.2c0,0,0,0,0,0V19.9z M28.1,19.8v-3.6h1c1,0,1.8,0.8,1.8,1.8c0,1-0.8,1.8-1.8,1.8H28.1z M28,19.9
						C28,19.9,28,19.9,28,19.9l1.1,0c1.1,0,1.9-0.8,1.9-1.9c0-1-0.9-1.9-1.9-1.9H28c0,0,0,0,0,0V19.9z"/>
				</g>
				<g clip-path="url(#SVGID_28_)">
					<defs>
						<rect id="SVGID_31_" x="28" y="16" width="60" height="4"/>
					</defs>
					<clipPath id="SVGID_32_">
						<use xlink:href="#SVGID_31_"  overflow="visible"/>
					</clipPath>
					<g clip-path="url(#SVGID_32_)">
						<defs>
							<rect id="SVGID_33_" x="28" y="15" width="61" height="5"/>
						</defs>
						<clipPath id="SVGID_34_">
							<use xlink:href="#SVGID_33_"  overflow="visible"/>
						</clipPath>
						<rect x="23" y="11" clip-path="url(#SVGID_34_)" fill="#FF4E50" width="70" height="14"/>
					</g>
				</g>
			</g>
		</g>
	</g>
</g>
</svg>
