<?xml version="1.0" encoding="utf-8"?>
<!-- Generator: Adobe Illustrator 18.0.0, SVG Export Plug-In . SVG Version: 6.00 Build 0)  -->
<!DOCTYPE svg PUBLIC "-//W3C//DTD SVG 1.1//EN" "http://www.w3.org/Graphics/SVG/1.1/DTD/svg11.dtd">
<svg version="1.1" id="Layer_1" xmlns="http://www.w3.org/2000/svg" xmlns:xlink="http://www.w3.org/1999/xlink" x="0px" y="0px"
	 viewBox="0 0 20 20" enable-background="new 0 0 20 20" xml:space="preserve">
<g>
	<g>
		<path d="M15.8,15.8c-0.6,0-1.3-0.1-2-0.1c0.7-0.6,1.3-1.4,1.7-2.2c0.2,0.2,0.5,0.4,0.8,0.4c0.1,0,0.3,0,0.4,0
			c0.3,0,0.6-0.1,0.8-0.2c0.4-0.2,0.6-0.6,0.7-1c0.1-0.4,0-0.9-0.2-1.2c-0.4-0.6-1.1-0.9-1.8-0.7c0-0.3,0-0.6,0-0.9
			c0-0.3-0.2-0.6-0.6-0.6H5.3C5,9.3,4.8,9.5,4.8,9.9c0,2.4,1,4.6,2.5,5.8c-0.7,0-1.4,0.1-2,0.1c-2.1,0.1-2.7,0.3-2.7,0.9
			c0,0.6,0.6,0.8,2.7,0.9c1.4,0.1,3.3,0.2,5.3,0.2c2,0,3.9-0.1,5.3-0.2c2.1-0.1,2.7-0.3,2.7-0.9C18.5,16.1,17.9,15.9,15.8,15.8z
			 M16.1,11.5C16.1,11.5,16.1,11.5,16.1,11.5c0.5-0.3,1-0.1,1.3,0.3c0.1,0.2,0.2,0.5,0.1,0.7c-0.1,0.2-0.2,0.5-0.4,0.6
			c-0.2,0.1-0.5,0.2-0.7,0.1c-0.2-0.1-0.4-0.2-0.6-0.4c0,0,0,0,0,0C15.9,12.4,16,11.9,16.1,11.5z M10.5,15.9c-2.4,0-4.4-2.4-4.6-5.4
			h9.2C14.9,13.5,12.9,15.9,10.5,15.9z M9.5,8.1L9.5,8.1c0.2,0,0.3-0.1,0.4-0.2C10,7.8,10,7.7,9.9,7.5c0,0-0.4-1.3,0.1-2.3
			c0.6-1,0.8-1.8,0.6-2.4C10.4,2.3,10,2.2,10,2.2C9.7,2.1,9.5,2.3,9.4,2.5C9.3,2.7,9.5,3,9.7,3c0,0,0.1,0,0.1,0.1
			c0.1,0.1,0.1,0.6-0.5,1.6l0,0c0,0.1-0.1,0.2-0.1,0.2C8.4,6.1,8.2,6.9,8.5,7.5C8.7,7.9,9.2,8.1,9.5,8.1z M11.8,8.2L11.8,8.2
			c0.2,0,0.3-0.1,0.4-0.2c0.1-0.1,0.1-0.3,0.1-0.4c0,0-0.2-0.7,0.1-1.3c0.4-0.7,0.5-1.2,0.4-1.6c-0.1-0.4-0.4-0.5-0.5-0.5
			c-0.2-0.1-0.5,0.1-0.5,0.3c0,0.1,0,0.2,0,0.3C11.8,5,11.8,5.1,12,5.1c0,0,0,0,0,0c0,0,0.1,0.2-0.3,0.8l0,0c0,0-0.1,0.1-0.1,0.1
			c-0.5,0.7-0.6,1.2-0.4,1.7C11.3,8.1,11.6,8.2,11.8,8.2z"/>
	</g>
</g>
</svg>
