<?xml version="1.0" encoding="utf-8"?>
<!-- Generator: Adobe Illustrator 18.0.0, SVG Export Plug-In . SVG Version: 6.00 Build 0)  -->
<!DOCTYPE svg PUBLIC "-//W3C//DTD SVG 1.1//EN" "http://www.w3.org/Graphics/SVG/1.1/DTD/svg11.dtd">
<svg version="1.1" id="Layer_1" xmlns="http://www.w3.org/2000/svg" xmlns:xlink="http://www.w3.org/1999/xlink" x="0px" y="0px"
	 viewBox="0 0 20 20" enable-background="new 0 0 20 20" xml:space="preserve">
<g>
	<g>
		<path d="M17.9,2c-0.1,0-0.1,0-0.2,0L2.1,10C2,10,2,10.1,2,10.1c0,0.1,0,0.1,0.1,0.1l5,1.6c0.1,0,0.1,0,0.2,0l7.5-6.4L9,12.2
			c0,0,0,0.1,0,0.1c0,0.1,0.1,0.1,0.1,0.1l5.8,1.8c0,0,0,0,0,0c0,0,0.1,0,0.1,0c0,0,0.1-0.1,0.1-0.1L18,2.2C18,2.1,18,2.1,17.9,2z
			 M9.1,13.7c0,0-0.1,0-0.1,0c0,0-0.1,0.1-0.1,0.1v3c0,0.1,0,0.1,0.1,0.2c0,0,0,0,0,0c0.1,0,0.1,0,0.1-0.1l1.6-2.5c0,0,0-0.1,0-0.1
			c0,0-0.1-0.1-0.1-0.1L9.1,13.7z"/>
	</g>
</g>
</svg>
