<?xml version="1.0" encoding="utf-8"?>
<!-- Generator: Adobe Illustrator 18.0.0, SVG Export Plug-In . SVG Version: 6.00 Build 0)  -->
<!DOCTYPE svg PUBLIC "-//W3C//DTD SVG 1.1//EN" "http://www.w3.org/Graphics/SVG/1.1/DTD/svg11.dtd">
<svg version="1.1" id="Layer_1" xmlns="http://www.w3.org/2000/svg" xmlns:xlink="http://www.w3.org/1999/xlink" x="0px" y="0px"
	 viewBox="0 0 20 20" enable-background="new 0 0 20 20" xml:space="preserve">
<g>
	<g>
		<path d="M15.7,15.5l-3.1-8.3V4.8c0.6-0.2,1-0.7,1-1.4V3c0-0.8-0.7-1.5-1.5-1.5H7.8C7,1.5,6.3,2.2,6.3,3v0.4c0,0.6,0.4,1.2,1,1.4
			v2.4l-3.1,8.3c-0.2,0.5-0.1,1,0.1,1.4c0.3,0.4,0.7,0.6,1.2,0.6h8.7c0.5,0,1-0.2,1.2-0.7C15.8,16.4,15.9,15.9,15.7,15.5z M8.1,14.1
			c-0.3,0-0.5-0.2-0.5-0.5c0-0.3,0.2-0.5,0.5-0.5c0.3,0,0.5,0.2,0.5,0.5C8.6,13.9,8.4,14.1,8.1,14.1z M10.9,15.8
			c-0.5,0-0.9-0.4-0.9-0.9c0-0.5,0.4-0.9,0.9-0.9c0.5,0,0.9,0.4,0.9,0.9C11.7,15.4,11.3,15.8,10.9,15.8z M10.1,12.1
			c0-0.3,0.3-0.6,0.6-0.6c0.3,0,0.6,0.3,0.6,0.6c0,0.3-0.3,0.6-0.6,0.6C10.4,12.8,10.1,12.5,10.1,12.1z M12.5,9.7
			c-0.6,0.7-5.3,0.7-5.3,0.7h0l1.1-3.1v-3l0-0.5H7.8c-0.3,0-0.5-0.2-0.5-0.5V3c0-0.3,0.2-0.5,0.5-0.5h4.4c0.3,0,0.5,0.2,0.5,0.5v0.4
			c0,0.3-0.2,0.5-0.5,0.5h-0.5v3.5L12.5,9.7C12.5,9.7,12.5,9.7,12.5,9.7z M9.6,7.9C9.3,7.9,9,8.2,9,8.6c0,0.4,0.3,0.7,0.7,0.7
			c0.4,0,0.7-0.3,0.7-0.7C10.3,8.2,10,7.9,9.6,7.9z"/>
	</g>
</g>
</svg>
