<?xml version="1.0" encoding="utf-8"?>
<!-- Generator: Adobe Illustrator 18.0.0, SVG Export Plug-In . SVG Version: 6.00 Build 0)  -->
<!DOCTYPE svg PUBLIC "-//W3C//DTD SVG 1.1//EN" "http://www.w3.org/Graphics/SVG/1.1/DTD/svg11.dtd">
<svg version="1.1" id="Layer_1" xmlns="http://www.w3.org/2000/svg" xmlns:xlink="http://www.w3.org/1999/xlink" x="0px" y="0px"
	 viewBox="0 0 20 20" enable-background="new 0 0 20 20" xml:space="preserve">
<path d="M17.2,5.5h-5.7l2.2-2.7c0,0,0.1,0,0.1,0c0.4,0,0.7-0.3,0.7-0.7c0-0.4-0.3-0.7-0.7-0.7c-0.4,0-0.7,0.3-0.7,0.7
	c0,0.1,0,0.2,0,0.2l-2.6,3.1h-0.2L7.8,2.4c0-0.1,0-0.1,0-0.2c0-0.4-0.3-0.7-0.7-0.7c-0.4,0-0.7,0.3-0.7,0.7c0,0.4,0.3,0.7,0.7,0.7
	c0,0,0.1,0,0.1,0l2.2,2.7H3.8c-0.7,0-1.3,0.6-1.3,1.3v9.3c0,0.7,0.6,1.3,1.3,1.3h13.3c0.7,0,1.3-0.6,1.3-1.3V6.8
	C18.5,6.1,17.9,5.5,17.2,5.5z M14.5,14.8c0,0.7-0.6,1.3-1.3,1.3h-8c-0.7,0-1.3-0.6-1.3-1.3V8.2c0-0.7,0.6-1.3,1.3-1.3h8
	c0.7,0,1.3,0.6,1.3,1.3V14.8z M16.5,8.9c-0.5,0-1-0.4-1-1c0-0.5,0.4-1,1-1c0.5,0,1,0.4,1,1C17.4,8.4,17,8.9,16.5,8.9z"/>
</svg>
